<?xml version="1.0" standalone="no"?>
<!DOCTYPE svg PUBLIC "-//W3C//DTD SVG 20010904//EN"
 "http://www.w3.org/TR/2001/REC-SVG-20010904/DTD/svg10.dtd">
<svg version="1.0" xmlns="http://www.w3.org/2000/svg"
 width="150.000000pt" height="150.000000pt" viewBox="0 0 150.000000 150.000000"
 preserveAspectRatio="xMidYMid meet">

<g transform="translate(0.000000,150.000000) scale(0.100000,-0.100000)"
fill="#000000" stroke="none">
<path d="M660 1231 c0 -6 4 -13 10 -16 6 -3 7 1 4 9 -7 18 -14 21 -14 7z"/>
<path d="M695 1180 c10 -11 20 -20 23 -20 3 0 -3 9 -13 20 -10 11 -20 20 -23
20 -3 0 3 -9 13 -20z"/>
<path d="M570 1171 c0 -6 4 -13 10 -16 6 -3 7 1 4 9 -7 18 -14 21 -14 7z"/>
<path d="M695 1130 c10 -11 20 -20 23 -20 3 0 -3 9 -13 20 -10 11 -20 20 -23
20 -3 0 3 -9 13 -20z"/>
<path d="M750 1127 c14 -16 38 -36 55 -44 26 -14 28 -17 11 -23 -15 -5 -7 -15
50 -55 94 -67 161 -131 191 -183 22 -36 25 -52 21 -104 -4 -52 -3 -58 9 -42
48 66 39 179 -20 242 -40 44 -231 163 -213 133 4 -7 1 -8 -8 -5 -9 3 -14 10
-11 15 3 4 -7 16 -22 25 -15 10 -41 29 -58 43 l-30 26 25 -28z"/>
<path d="M215 1100 c3 -5 8 -10 11 -10 2 0 4 5 4 10 0 6 -5 10 -11 10 -5 0 -7
-4 -4 -10z"/>
<path d="M620 1086 c0 -2 8 -10 18 -17 15 -13 16 -12 3 4 -13 16 -21 21 -21
13z"/>
<path d="M675 1020 c10 -11 20 -20 23 -20 3 0 -3 9 -13 20 -10 11 -20 20 -23
20 -3 0 3 -9 13 -20z"/>
<path d="M750 996 c19 -21 30 -36 23 -32 -6 3 -18 3 -27 0 -13 -5 -9 -14 23
-49 77 -83 91 -154 47 -229 -24 -40 -87 -86 -120 -86 -29 0 -17 -18 17 -23 24
-4 43 2 78 24 25 16 53 29 61 29 9 0 26 20 38 46 18 36 21 56 17 94 -8 71 -36
116 -119 195 -40 39 -57 52 -38 31z"/>
<path d="M340 980 c6 -11 13 -20 16 -20 2 0 0 9 -6 20 -6 11 -13 20 -16 20 -2
0 0 -9 6 -20z"/>
<path d="M248 960 c-16 -53 -9 -67 69 -139 42 -39 81 -71 86 -71 13 0 -1 126
-18 168 -16 36 -26 43 -17 10 4 -17 2 -20 -11 -15 -9 3 -19 2 -22 -3 -9 -14
-35 0 -35 18 0 12 -3 13 -12 4 -19 -19 -27 -14 -30 21 -3 31 -3 31 -10 7z"/>
<path d="M1444 898 l-19 -23 23 19 c21 18 27 26 19 26 -2 0 -12 -10 -23 -22z"/>
<path d="M187 903 c-9 -8 12 -33 27 -33 6 0 3 5 -7 11 -9 6 -15 14 -12 20 7
10 2 12 -8 2z"/>
<path d="M1479 883 c-13 -16 -12 -17 4 -4 16 13 21 21 13 21 -2 0 -10 -8 -17
-17z"/>
<path d="M1176 847 c3 -10 9 -15 12 -12 3 3 0 11 -7 18 -10 9 -11 8 -5 -6z"/>
<path d="M1345 798 l-40 -43 43 40 c23 21 42 40 42 42 0 8 -9 0 -45 -39z"/>
<path d="M220 810 c0 -5 10 -10 23 -10 18 0 19 2 7 10 -19 13 -30 13 -30 0z"/>
<path d="M188 763 c7 -3 16 -2 19 1 4 3 -2 6 -13 5 -11 0 -14 -3 -6 -6z"/>
<path d="M1001 760 c0 -8 4 -22 9 -30 12 -18 12 -2 0 25 -6 13 -9 15 -9 5z"/>
<path d="M1199 747 c-17 -13 -53 -77 -44 -77 3 0 19 7 35 15 23 12 30 22 30
45 0 34 1 34 -21 17z"/>
<path d="M491 736 c-15 -18 -16 -16 50 -66 l26 -19 0 43 c0 42 -2 44 -28 42
-16 -1 -30 2 -32 7 -1 5 -9 2 -16 -7z"/>
<path d="M963 660 c-7 -41 -11 -76 -9 -78 7 -7 75 32 70 40 -3 5 -6 24 -6 42
0 28 -3 33 -18 29 -13 -4 -19 2 -22 19 -2 12 -9 -11 -15 -52z"/>
<path d="M98 683 c7 -3 16 -2 19 1 4 3 -2 6 -13 5 -11 0 -14 -3 -6 -6z"/>
<path d="M1344 674 c-18 -14 -18 -15 4 -4 12 6 22 13 22 15 0 8 -5 6 -26 -11z"/>
<path d="M69 622 c-61 -89 -78 -237 -36 -320 29 -60 119 -150 183 -184 70 -38
206 -84 289 -98 39 -7 117 -12 175 -11 198 3 320 45 434 151 108 102 171 237
162 345 -2 22 -4 48 -5 58 -1 12 -10 17 -33 17 -23 0 -29 -3 -19 -9 22 -14 4
-29 -44 -37 -25 -3 -45 -10 -45 -15 0 -4 -16 -11 -35 -15 -19 -3 -35 -10 -35
-15 0 -5 -14 -9 -31 -9 -19 0 -37 -8 -47 -20 -15 -18 -23 -19 -64 -12 -43 8
-47 7 -57 -14 -6 -13 -16 -24 -22 -24 -7 0 -9 -9 -5 -25 5 -18 1 -28 -14 -37
-26 -16 -26 -38 0 -38 27 0 25 -14 -2 -28 -13 -6 -17 -11 -10 -11 25 -2 142
-96 142 -114 0 -5 -12 -7 -26 -4 -18 3 -22 1 -15 -6 6 -6 11 -19 11 -29 0 -26
-50 -24 -84 3 l-27 21 7 -27 c13 -53 -49 -50 -77 3 -14 25 -14 25 -19 -18 -6
-54 -30 -72 -59 -46 -12 11 -21 29 -21 40 0 17 -3 16 -15 -9 -28 -55 -75 -69
-75 -22 0 19 -1 19 -18 4 -26 -24 -52 -22 -52 3 0 17 -3 19 -19 10 -30 -16
-44 -12 -38 10 5 18 3 18 -19 4 -29 -19 -51 -10 -32 14 10 14 10 15 -2 5 -16
-14 -50 -17 -50 -5 0 4 6 14 13 21 6 8 7 11 2 8 -14 -7 -49 19 -36 27 6 4 8
12 5 19 -2 7 3 22 13 32 10 11 18 27 18 35 0 8 15 17 39 22 21 5 73 20 115 35
l76 28 -60 10 c-64 12 -109 36 -126 66 -5 11 -17 19 -26 19 -12 0 -13 3 -4 13
9 11 3 14 -32 13 -29 -1 -41 3 -40 12 2 6 -6 12 -18 12 -12 0 -19 5 -17 12 3
7 -4 21 -14 32 -14 15 -15 22 -6 28 10 6 9 8 -2 8 -8 0 -22 5 -30 10 -13 8
-13 11 -1 19 10 7 6 11 -18 16 -33 7 -52 25 -27 25 31 0 16 18 -18 22 -29 3
-37 -1 -57 -30z"/>
<path d="M850 600 c0 -5 7 -10 15 -10 8 0 15 5 15 10 0 6 -7 10 -15 10 -8 0
-15 -4 -15 -10z"/>
<path d="M895 570 c-4 -6 -12 -7 -18 -3 -7 3 -4 -3 6 -14 9 -11 14 -23 10 -28
-5 -4 2 -1 15 6 19 12 20 16 7 25 -8 6 -12 14 -8 17 3 4 4 7 0 7 -3 0 -9 -5
-12 -10z"/>
<path d="M932 560 c7 -10 14 -18 15 -16 6 6 -9 36 -18 36 -5 0 -4 -9 3 -20z"/>
<path d="M557 409 c-9 -6 -26 -7 -37 -4 -29 9 -24 -2 8 -19 25 -13 28 -12 45
10 19 25 13 30 -16 13z"/>
<path d="M740 320 c0 -5 9 -14 20 -20 11 -6 20 -7 20 -3 0 5 -9 14 -20 21 -11
7 -20 8 -20 2z"/>
<path d="M715 299 c4 -5 1 -16 -5 -24 -7 -8 -8 -15 -4 -15 5 0 15 9 21 19 10
16 9 20 -3 25 -9 3 -12 2 -9 -5z"/>
</g>
</svg>
